<svg width="24" height="24" viewBox="0 0 24 24" fill="none" xmlns="http://www.w3.org/2000/svg">
<path d="M21.8335 2.9772H18.2899C18.2189 2.9772 18.1508 3.00539 18.1006 3.05558C18.0505 3.10576 18.0223 3.17383 18.0223 3.2448C18.0223 3.2904 18.0367 3.3312 18.0565 3.3684V5.4072C18.0565 5.48192 18.0419 5.55592 18.0133 5.62496C17.9848 5.69401 17.9429 5.75674 17.89 5.80958C17.8372 5.86241 17.7745 5.90431 17.7054 5.93286C17.6364 5.96142 17.5624 5.97608 17.4877 5.976H16.3849C16.3155 5.976 16.2469 5.96234 16.1828 5.93581C16.1187 5.90927 16.0605 5.87038 16.0115 5.82135C15.9625 5.77232 15.9236 5.71412 15.8971 5.65006C15.8705 5.586 15.8569 5.51734 15.8569 5.448V3.4014C15.8922 3.35675 15.9121 3.30176 15.9133 3.2448C15.9133 3.20964 15.9065 3.1748 15.8931 3.1423C15.8796 3.1098 15.8599 3.08027 15.8351 3.0554C15.8102 3.03054 15.7807 3.01083 15.7482 2.99741C15.7157 2.98399 15.6808 2.97712 15.6457 2.9772H8.50266C8.43169 2.9772 8.36363 3.00539 8.31344 3.05558C8.26326 3.10576 8.23506 3.17383 8.23506 3.2448C8.23506 3.2862 8.24646 3.324 8.26326 3.3594V5.4216C8.26326 5.49448 8.24891 5.56665 8.22102 5.63399C8.19312 5.70133 8.15224 5.76251 8.10071 5.81404C8.04917 5.86558 7.98799 5.90646 7.92065 5.93435C7.85332 5.96224 7.78115 5.9766 7.70826 5.9766H6.72906C6.58044 5.9766 6.4379 5.91756 6.3328 5.81246C6.22771 5.70737 6.16866 5.56483 6.16866 5.4162V3.3744C6.19249 3.3353 6.20553 3.29058 6.20646 3.2448C6.20654 3.20964 6.19967 3.1748 6.18625 3.1423C6.17283 3.1098 6.15313 3.08027 6.12826 3.0554C6.1034 3.03054 6.07386 3.01083 6.04136 2.99741C6.00886 2.98399 5.97403 2.97712 5.93886 2.9772H2.20506C2.04736 2.97736 1.89615 3.04004 1.78458 3.15149C1.67301 3.26295 1.61018 3.4141 1.60986 3.5718V21.2922C1.60986 21.621 1.87686 21.888 2.20506 21.888H21.8335C21.9913 21.8877 22.1425 21.8248 22.254 21.7131C22.3655 21.6014 22.4281 21.45 22.4281 21.2922V3.5718C22.4277 3.4142 22.365 3.26315 22.2536 3.1517C22.1421 3.04026 21.9911 2.97752 21.8335 2.9772ZM21.8335 21.3528H2.20506C2.19713 21.3528 2.18928 21.3512 2.18196 21.3482C2.17464 21.3451 2.168 21.3407 2.16242 21.335C2.15684 21.3294 2.15244 21.3227 2.14946 21.3153C2.14648 21.308 2.14498 21.3001 2.14506 21.2922V7.9284H21.8929V21.2916C21.893 21.2995 21.8916 21.3074 21.8887 21.3148C21.8858 21.3222 21.8815 21.3289 21.8759 21.3346C21.8704 21.3403 21.8638 21.3448 21.8565 21.3479C21.8492 21.3511 21.8414 21.3527 21.8335 21.3528Z" fill="white"/>
<path d="M7.28835 5.3664C7.43595 5.3664 7.55595 5.2464 7.55595 5.0988V1.5C7.55595 1.46486 7.54903 1.43006 7.53558 1.39759C7.52213 1.36513 7.50242 1.33563 7.47757 1.31078C7.45272 1.28593 7.42322 1.26622 7.39076 1.25277C7.35829 1.23932 7.32349 1.2324 7.28835 1.2324C7.25321 1.2324 7.21841 1.23932 7.18595 1.25277C7.15348 1.26622 7.12398 1.28593 7.09913 1.31078C7.07428 1.33563 7.05457 1.36513 7.04112 1.39759C7.02767 1.43006 7.02075 1.46486 7.02075 1.5V5.0994C7.02075 5.247 7.14075 5.3664 7.28835 5.3664ZM16.9808 5.3664C17.1284 5.3664 17.2484 5.2464 17.2484 5.0988V1.5C17.2484 1.46486 17.2414 1.43006 17.228 1.39759C17.2145 1.36513 17.1948 1.33563 17.17 1.31078C17.1451 1.28593 17.1156 1.26622 17.0832 1.25277C17.0507 1.23932 17.0159 1.2324 16.9808 1.2324C16.9456 1.2324 16.9108 1.23932 16.8783 1.25277C16.8459 1.26622 16.8164 1.28593 16.7915 1.31078C16.7667 1.33563 16.747 1.36513 16.7335 1.39759C16.7201 1.43006 16.7132 1.46486 16.7132 1.5V5.0994C16.7132 5.247 16.8326 5.3664 16.9808 5.3664Z" fill="white"/>
<path d="M5.90522 11.9766C6.71973 11.9766 7.38002 11.3163 7.38002 10.5018C7.38002 9.68729 6.71973 9.027 5.90522 9.027C5.09071 9.027 4.43042 9.68729 4.43042 10.5018C4.43042 11.3163 5.09071 11.9766 5.90522 11.9766Z" fill="white"/>
<path d="M10.1437 11.9766C10.9583 11.9766 11.6185 11.3163 11.6185 10.5018C11.6185 9.68729 10.9583 9.027 10.1437 9.027C9.32924 9.027 8.66895 9.68729 8.66895 10.5018C8.66895 11.3163 9.32924 11.9766 10.1437 11.9766Z" fill="white"/>
<path d="M14.3815 11.9766C15.196 11.9766 15.8563 11.3163 15.8563 10.5018C15.8563 9.68729 15.196 9.027 14.3815 9.027C13.567 9.027 12.9067 9.68729 12.9067 10.5018C12.9067 11.3163 13.567 11.9766 14.3815 11.9766Z" fill="white"/>
<path d="M5.90522 16.0836C6.71973 16.0836 7.38002 15.4233 7.38002 14.6088C7.38002 13.7943 6.71973 13.134 5.90522 13.134C5.09071 13.134 4.43042 13.7943 4.43042 14.6088C4.43042 15.4233 5.09071 16.0836 5.90522 16.0836Z" fill="white"/>
<path d="M10.1437 16.0836C10.9583 16.0836 11.6185 15.4233 11.6185 14.6088C11.6185 13.7943 10.9583 13.134 10.1437 13.134C9.32924 13.134 8.66895 13.7943 8.66895 14.6088C8.66895 15.4233 9.32924 16.0836 10.1437 16.0836Z" fill="white"/>
<path d="M14.3815 16.0836C15.196 16.0836 15.8563 15.4233 15.8563 14.6088C15.8563 13.7943 15.196 13.134 14.3815 13.134C13.567 13.134 12.9067 13.7943 12.9067 14.6088C12.9067 15.4233 13.567 16.0836 14.3815 16.0836Z" fill="white"/>
<path d="M5.90522 20.1906C6.71973 20.1906 7.38002 19.5303 7.38002 18.7158C7.38002 17.9013 6.71973 17.241 5.90522 17.241C5.09071 17.241 4.43042 17.9013 4.43042 18.7158C4.43042 19.5303 5.09071 20.1906 5.90522 20.1906Z" fill="white"/>
<path d="M10.1437 20.1906C10.9583 20.1906 11.6185 19.5303 11.6185 18.7158C11.6185 17.9013 10.9583 17.241 10.1437 17.241C9.32924 17.241 8.66895 17.9013 8.66895 18.7158C8.66895 19.5303 9.32924 20.1906 10.1437 20.1906Z" fill="white"/>
<path d="M14.3815 20.1906C15.196 20.1906 15.8563 19.5303 15.8563 18.7158C15.8563 17.9013 15.196 17.241 14.3815 17.241C13.567 17.241 12.9067 17.9013 12.9067 18.7158C12.9067 19.5303 13.567 20.1906 14.3815 20.1906Z" fill="white"/>
<path d="M18.5202 11.9766C19.3347 11.9766 19.995 11.3163 19.995 10.5018C19.995 9.68729 19.3347 9.027 18.5202 9.027C17.7057 9.027 17.0454 9.68729 17.0454 10.5018C17.0454 11.3163 17.7057 11.9766 18.5202 11.9766Z" fill="white"/>
<path d="M18.5202 16.0836C19.3347 16.0836 19.995 15.4233 19.995 14.6088C19.995 13.7943 19.3347 13.134 18.5202 13.134C17.7057 13.134 17.0454 13.7943 17.0454 14.6088C17.0454 15.4233 17.7057 16.0836 18.5202 16.0836Z" fill="white"/>
<path d="M18.5202 20.1906C19.3347 20.1906 19.995 19.5303 19.995 18.7158C19.995 17.9013 19.3347 17.241 18.5202 17.241C17.7057 17.241 17.0454 17.9013 17.0454 18.7158C17.0454 19.5303 17.7057 20.1906 18.5202 20.1906Z" fill="white"/>
</svg>
