<svg width="95" height="20" viewBox="0 0 95 20" fill="none" xmlns="http://www.w3.org/2000/svg">
<path d="M18.92 2.248V19H15.56V8.104L11.072 19H8.528L4.016 8.104V19H0.656V2.248H4.472L9.8 14.704L15.128 2.248H18.92ZM23.9459 4.12C23.3539 4.12 22.8579 3.936 22.4579 3.568C22.0739 3.184 21.8819 2.712 21.8819 2.152C21.8819 1.592 22.0739 1.128 22.4579 0.759999C22.8579 0.375999 23.3539 0.183999 23.9459 0.183999C24.5379 0.183999 25.0259 0.375999 25.4099 0.759999C25.8099 1.128 26.0099 1.592 26.0099 2.152C26.0099 2.712 25.8099 3.184 25.4099 3.568C25.0259 3.936 24.5379 4.12 23.9459 4.12ZM25.6019 5.704V19H22.2419V5.704H25.6019ZM28.0576 12.304C28.0576 10.96 28.3216 9.768 28.8496 8.728C29.3936 7.688 30.1296 6.888 31.0576 6.328C31.9856 5.768 33.0176 5.488 34.1536 5.488C35.0176 5.488 35.8416 5.68 36.6256 6.064C37.4096 6.432 38.0336 6.928 38.4976 7.552V1.24H41.9056V19H38.4976V17.032C38.0816 17.688 37.4976 18.216 36.7456 18.616C35.9936 19.016 35.1216 19.216 34.1296 19.216C33.0096 19.216 31.9856 18.928 31.0576 18.352C30.1296 17.776 29.3936 16.968 28.8496 15.928C28.3216 14.872 28.0576 13.664 28.0576 12.304ZM38.5216 12.352C38.5216 11.536 38.3616 10.84 38.0416 10.264C37.7216 9.672 37.2896 9.224 36.7456 8.92C36.2016 8.6 35.6176 8.44 34.9936 8.44C34.3696 8.44 33.7936 8.592 33.2656 8.896C32.7376 9.2 32.3056 9.648 31.9696 10.24C31.6496 10.816 31.4896 11.504 31.4896 12.304C31.4896 13.104 31.6496 13.808 31.9696 14.416C32.3056 15.008 32.7376 15.464 33.2656 15.784C33.8096 16.104 34.3856 16.264 34.9936 16.264C35.6176 16.264 36.2016 16.112 36.7456 15.808C37.2896 15.488 37.7216 15.04 38.0416 14.464C38.3616 13.872 38.5216 13.168 38.5216 12.352Z" fill="#2DA5BE"/>
<path d="M63.4513 2.248V19H60.0913V8.104L55.6033 19H53.0593L48.5473 8.104V19H45.1873V2.248H49.0033L54.3313 14.704L59.6593 2.248H63.4513ZM65.9092 12.304C65.9092 10.96 66.1732 9.768 66.7012 8.728C67.2452 7.688 67.9732 6.888 68.8852 6.328C69.8132 5.768 70.8452 5.488 71.9812 5.488C72.9732 5.488 73.8372 5.688 74.5732 6.088C75.3252 6.488 75.9252 6.992 76.3732 7.6V5.704H79.7572V19H76.3732V17.056C75.9412 17.68 75.3412 18.2 74.5732 18.616C73.8212 19.016 72.9492 19.216 71.9572 19.216C70.8372 19.216 69.8132 18.928 68.8852 18.352C67.9732 17.776 67.2452 16.968 66.7012 15.928C66.1732 14.872 65.9092 13.664 65.9092 12.304ZM76.3732 12.352C76.3732 11.536 76.2132 10.84 75.8932 10.264C75.5732 9.672 75.1412 9.224 74.5972 8.92C74.0532 8.6 73.4692 8.44 72.8452 8.44C72.2212 8.44 71.6452 8.592 71.1172 8.896C70.5892 9.2 70.1572 9.648 69.8212 10.24C69.5012 10.816 69.3412 11.504 69.3412 12.304C69.3412 13.104 69.5012 13.808 69.8212 14.416C70.1572 15.008 70.5892 15.464 71.1172 15.784C71.6612 16.104 72.2372 16.264 72.8452 16.264C73.4692 16.264 74.0532 16.112 74.5972 15.808C75.1412 15.488 75.5732 15.04 75.8932 14.464C76.2132 13.872 76.3732 13.168 76.3732 12.352ZM90.3828 19L87.6468 14.872L85.2228 19H81.6228L85.9668 12.328L81.5748 5.704H85.3668L88.0788 9.808L90.5268 5.704H94.1268L89.7588 12.328L94.1748 19H90.3828Z" fill="white"/>
</svg>
