<svg width="24" height="25" viewBox="0 0 24 25" fill="none" xmlns="http://www.w3.org/2000/svg">
<path d="M12 1.55762C6.20156 1.55762 1.5 6.25918 1.5 12.0576C1.5 17.8561 6.20156 22.5576 12 22.5576C17.7984 22.5576 22.5 17.8561 22.5 12.0576C22.5 6.25918 17.7984 1.55762 12 1.55762ZM17.0461 9.47246C17.0531 9.58262 17.0531 9.69746 17.0531 9.80996C17.0531 13.2506 14.4328 17.2139 9.64453 17.2139C8.16797 17.2139 6.79922 16.785 5.64609 16.0467C5.85703 16.0701 6.05859 16.0795 6.27422 16.0795C7.49297 16.0795 8.61328 15.667 9.50625 14.9686C8.3625 14.9451 7.40156 14.1951 7.07344 13.1639C7.47422 13.2225 7.83516 13.2225 8.24766 13.117C7.65873 12.9973 7.12939 12.6775 6.74957 12.2118C6.36974 11.7461 6.16286 11.1633 6.16406 10.5623V10.5295C6.50859 10.724 6.91406 10.8436 7.33828 10.86C6.98166 10.6223 6.6892 10.3003 6.48682 9.92253C6.28445 9.54476 6.17841 9.1229 6.17813 8.69434C6.17813 8.20918 6.30469 7.76621 6.53203 7.38184C7.18571 8.18653 8.0014 8.84467 8.92609 9.31347C9.85078 9.78228 10.8638 10.0513 11.8992 10.1029C11.5312 8.3334 12.8531 6.90137 14.4422 6.90137C15.1922 6.90137 15.8672 7.21543 16.343 7.72168C16.9312 7.61152 17.4937 7.39121 17.9953 7.0959C17.8008 7.69824 17.393 8.20684 16.8516 8.52793C17.3766 8.47168 17.8828 8.32637 18.3516 8.12246C17.9977 8.64277 17.5547 9.10449 17.0461 9.47246Z" fill="#2DA5BE"/>
</svg>
