<svg width="24" height="25" viewBox="0 0 24 25" fill="none" xmlns="http://www.w3.org/2000/svg">
<path d="M2.00195 12.0595C2.00252 14.4408 2.85242 16.7438 4.39892 18.5546C5.94541 20.3654 8.08707 21.5653 10.439 21.9385V14.9495H7.90195V12.0595H10.442V9.85945C10.3859 9.34454 10.4438 8.8236 10.6118 8.33362C10.7797 7.84364 11.0535 7.39665 11.4136 7.02438C11.7737 6.65212 12.2114 6.36373 12.6956 6.17968C13.1797 5.99563 13.6985 5.92044 14.215 5.95945C14.965 5.97145 15.715 6.03845 16.455 6.15945V8.61845H15.191C14.9761 8.59032 14.7577 8.61082 14.5519 8.67843C14.346 8.74605 14.158 8.85907 14.0017 9.00912C13.8454 9.15917 13.7249 9.34243 13.6489 9.54535C13.573 9.74827 13.5436 9.96566 13.563 10.1815V12.0595H16.334L15.891 14.9505H13.563V21.9385C15.4506 21.6401 17.2132 20.8072 18.6421 19.5382C20.071 18.2693 21.1064 16.6174 21.6257 14.7783C22.145 12.9391 22.1264 10.9897 21.5721 9.16079C21.0179 7.33188 19.9512 5.70008 18.4983 4.4586C17.0455 3.21711 15.2673 2.41792 13.3743 2.15566C11.4814 1.89339 9.55287 2.17903 7.81721 2.97876C6.08154 3.77848 4.61137 5.0588 3.58076 6.66813C2.55015 8.27746 2.00226 10.1484 2.00195 12.0595Z" fill="#2DA5BE"/>
</svg>
