<svg width="21" height="20" viewBox="0 0 21 20" fill="none" xmlns="http://www.w3.org/2000/svg">
<path d="M10.4972 6.55535C8.56916 6.55535 6.99575 8.02915 6.99575 9.83512C6.99575 11.6411 8.56916 13.1149 10.4972 13.1149C12.4252 13.1149 13.9986 11.6411 13.9986 9.83512C13.9986 8.02915 12.4252 6.55535 10.4972 6.55535ZM20.9988 9.83512C20.9988 8.47696 21.012 7.13109 20.9305 5.77539C20.8491 4.20071 20.4656 2.80318 19.2363 1.65169C18.0044 0.497741 16.515 0.140977 14.8339 0.0647033C13.3839 -0.0115704 11.9471 0.000731844 10.4998 0.000731844C9.04985 0.000731844 7.61303 -0.0115704 6.16571 0.0647033C4.4846 0.140977 2.99262 0.500201 1.76331 1.65169C0.53138 2.80564 0.150505 4.20071 0.0690761 5.77539C-0.0123524 7.13355 0.000781304 8.47942 0.000781304 9.83512C0.000781304 11.1908 -0.0123524 12.5391 0.0690761 13.8948C0.150505 15.4695 0.534007 16.8671 1.76331 18.0185C2.99525 19.1725 4.4846 19.5293 6.16571 19.6055C7.61566 19.6818 9.05248 19.6695 10.4998 19.6695C11.9498 19.6695 13.3866 19.6818 14.8339 19.6055C16.515 19.5293 18.007 19.17 19.2363 18.0185C20.4682 16.8646 20.8491 15.4695 20.9305 13.8948C21.0146 12.5391 20.9988 11.1933 20.9988 9.83512V9.83512ZM10.4972 14.8815C7.51584 14.8815 5.10976 12.6277 5.10976 9.83512C5.10976 7.04252 7.51584 4.78875 10.4972 4.78875C13.4785 4.78875 15.8846 7.04252 15.8846 9.83512C15.8846 12.6277 13.4785 14.8815 10.4972 14.8815ZM16.1052 5.76063C15.4092 5.76063 14.847 5.23409 14.847 4.58208C14.847 3.93006 15.4092 3.40352 16.1052 3.40352C16.8013 3.40352 17.3634 3.93006 17.3634 4.58208C17.3636 4.7369 17.3312 4.89024 17.2681 5.03332C17.2049 5.17639 17.1123 5.30639 16.9954 5.41587C16.8785 5.52535 16.7397 5.61215 16.587 5.67131C16.4342 5.73047 16.2705 5.76082 16.1052 5.76063V5.76063Z" fill="#2DA5BE"/>
</svg>
